<?xml version="1.0" encoding="utf-8"?>
<!-- Generator: Adobe Illustrator 18.0.0, SVG Export Plug-In . SVG Version: 6.00 Build 0)  -->
<svg version="1.2" baseProfile="tiny" id="Camada_1"
	 xmlns="http://www.w3.org/2000/svg" xmlns:xlink="http://www.w3.org/1999/xlink" x="0px" y="0px" viewBox="0 0 10 10"
	 xml:space="preserve">
<g>
	<path fill="#496BAC" d="M5.6,9.5c-2.7,0-4.9-2.2-4.9-4.9c0-1.8,1-3.5,2.5-4.3C1.4,1,0.1,2.7,0.1,4.8c0,2.7,2.2,5,5,5
		C6,9.8,7,9.5,7.7,9C7.1,9.3,6.4,9.5,5.6,9.5z"/>
	<path fill="#7E7C85" d="M5.4,0.2c-1.8,0-3.4,1.1-4.1,2.6c0.8-1.3,2.2-2.1,3.8-2.1c2.4,0,4.4,2,4.4,4.4c0,1.1-0.4,2-1,2.8
		c0.9-0.8,1.4-2,1.4-3.2C9.9,2.2,7.9,0.2,5.4,0.2z"/>
	<path fill="#16397D" d="M6.6,1.7c1.3,0.6,2.2,1.9,2.2,3.4c0,2.1-1.7,3.7-3.7,3.7C4.5,8.8,4,8.7,3.5,8.5C4.1,8.8,4.8,9,5.5,9
		c2.1,0,3.8-1.7,3.8-3.8C9.2,3.6,8.1,2.1,6.6,1.7z"/>
	<g>
		<path fill="#7E7C85" d="M7.1,5.5l0.7,0.2C7.6,6,7.5,6.2,7.4,6.2C7.1,6.6,6.6,6.8,6.1,6.8c-0.5,0-0.9-0.2-1.3-0.5
			C4.5,5.9,4.3,5.4,4.3,4.9S4.5,4,4.8,3.6c0.4-0.4,0.8-0.5,1.3-0.5c0.5,0,0.9,0.2,1.3,0.5c0.1,0.1,0.2,0.2,0.4,0.4L7.1,4.3
			C7,4.2,7,4.1,7,4.1C6.7,3.9,6.5,3.8,6.1,3.8c-0.3,0-0.6,0.1-0.8,0.3C5.1,4.3,5,4.6,5,4.9c0,0.3,0.1,0.6,0.3,0.8
			C5.6,6,5.8,6.1,6.1,6.1C6.5,6.1,6.7,6,7,5.7C7,5.7,7,5.6,7.1,5.5z"/>
	</g>
	<g>
		<path fill="#496BAC" d="M2,4.2L1.6,3.8c0.1-0.1,0.2-0.2,0.2-0.2C1.9,3.6,1.9,3.5,2,3.5c0.3-0.3,0.7-0.4,1.2-0.4
			c0.5,0,1,0.2,1.3,0.5C4.8,4,5,4.4,5,4.9S4.8,5.9,4.4,6.2C4.1,6.6,3.6,6.8,3.1,6.8c-0.5,0-1-0.2-1.3-0.5C1.7,6.2,1.6,6,1.4,5.8
			l0.7-0.2c0.1,0.1,0.1,0.2,0.2,0.2C2.5,6,2.8,6.1,3.1,6.1c0.3,0,0.5,0,0.6-0.1L2,4.2z M4.2,5.4c0.1-0.1,0.1-0.2,0.1-0.5
			c0-0.3-0.1-0.6-0.3-0.8C3.7,3.9,3.4,3.8,3.1,3.8c-0.3,0-0.4,0-0.5,0.1L4.2,5.4z"/>
	</g>
</g>
</svg>
